HIERARCHY
ROOT joint_0
{
	OFFSET 0.000000 0.000000 0.000000
	CHANNELS 6 Xposition Yposition Zposition Zrotation Yrotation Xrotation 
	JOINT joint_1
	{
		OFFSET 6.590088 -1.122192 114.019043
		CHANNELS 3 Zrotation Yrotation Xrotation
		JOINT joint_2
		{
			OFFSET -5.956055 -0.820435 104.151001
			CHANNELS 3 Zrotation Yrotation Xrotation
			JOINT joint_3
			{
				OFFSET -7.343506 -1.103027 103.942993
				CHANNELS 3 Zrotation Yrotation Xrotation
				JOINT joint_4
				{
					OFFSET 3.109131 -2.857056 147.715942
					CHANNELS 3 Zrotation Yrotation Xrotation
					JOINT joint_5
					{
						OFFSET 28.592285 -2.852295 87.703979
						CHANNELS 3 Zrotation Yrotation Xrotation
						End Site
						{
							OFFSET 0.000000 0.000000 0.000000
						}
					}
				}
				JOINT joint_6
				{
					OFFSET -0.332520 -33.687378 82.401978
					CHANNELS 3 Zrotation Yrotation Xrotation
					JOINT joint_7
					{
						OFFSET -7.397461 -168.719177 -22.750977
						CHANNELS 3 Zrotation Yrotation Xrotation
						JOINT joint_8
						{
							OFFSET 17.065918 -24.903137 -272.721069
							CHANNELS 3 Zrotation Yrotation Xrotation
							JOINT joint_9
							{
								OFFSET 33.311279 -37.031616 -278.192993
								CHANNELS 3 Zrotation Yrotation Xrotation
								End Site
								{
									OFFSET 0.000000 0.000000 0.000000
								}
							}
						}
					}
				}
				JOINT joint_10
				{
					OFFSET 3.914307 30.461670 83.552979
					CHANNELS 3 Zrotation Yrotation Xrotation
					JOINT joint_11
					{
						OFFSET 15.543701 166.845459 -30.963013
						CHANNELS 3 Zrotation Yrotation Xrotation
						JOINT joint_12
						{
							OFFSET 35.734863 35.017700 -269.786011
							CHANNELS 3 Zrotation Yrotation Xrotation
							JOINT joint_13
							{
								OFFSET 70.506592 13.977783 -273.320007
								CHANNELS 3 Zrotation Yrotation Xrotation
								End Site
								{
									OFFSET 0.000000 0.000000 0.000000
								}
							}
						}
					}
				}
			}
		}
	}
	JOINT joint_14
	{
		OFFSET -0.314697 -95.093994 -116.004028
		CHANNELS 3 Zrotation Yrotation Xrotation
		JOINT joint_15
		{
			OFFSET -22.490723 2.017883 -455.510986
			CHANNELS 3 Zrotation Yrotation Xrotation
			JOINT joint_16
			{
				OFFSET -46.427490 7.144104 -496.360985
				CHANNELS 3 Zrotation Yrotation Xrotation
				JOINT joint_17
				{
					OFFSET 209.055420 -37.122803 -85.191002
					CHANNELS 3 Zrotation Yrotation Xrotation
					End Site
					{
						OFFSET 0.000000 0.000000 0.000000
					}
				}
			}
		}
	}
	JOINT joint_18
	{
		OFFSET 5.652832 94.642578 -116.244019
		CHANNELS 3 Zrotation Yrotation Xrotation
		JOINT joint_19
		{
			OFFSET -12.379883 -7.332642 -455.843994
			CHANNELS 3 Zrotation Yrotation Xrotation
			JOINT joint_20
			{
				OFFSET -45.227051 -8.172241 -496.457985
				CHANNELS 3 Zrotation Yrotation Xrotation
				JOINT joint_21
				{
					OFFSET 210.522949 -11.530396 -88.809004
					CHANNELS 3 Zrotation Yrotation Xrotation
					End Site
					{
						OFFSET 0.000000 0.000000 0.000000
					}
				}
			}
		}
	}
}
MOTION
Frames: 16
Frame Time: 0.016667
-2523.101074 1044.951294 1182.498047 0.927418 -0.768391 0.540123 0.496591 0.886722 -1.972134 0.629466 -0.185695 0.459421 0.578534 0.204674 -0.321896 -0.092402 0.897335 0.367453 0.000000 0.000000 0.000000 -1.280859 -1.698691 1.800981 -0.052564 -1.996123 4.760262 -1.222034 3.641234 -6.064734 0.000000 0.000000 0.000000 2.009308 -1.846403 1.864698 -0.560554 -1.871669 -3.022929 1.372403 5.260681 4.555709 0.000000 0.000000 0.000000 3.193315 -0.001688 -1.747660 3.099049 2.157510 0.398307 3.000666 -0.276503 1.174358 0.000000 0.000000 0.000000 1.518226 -0.306132 2.763280 1.599256 -0.816829 0.326006 1.518731 2.018546 0.746965 0.000000 0.000000 0.000000 
-2523.120850 1044.946533 1182.498047 0.932847 -0.768510 0.539887 0.494834 0.887441 -1.970533 0.627545 -0.186004 0.458193 0.576813 0.205677 -0.320501 -0.091481 0.897134 0.364629 0.000000 0.000000 0.000000 -1.279491 -1.698801 1.802585 -0.051812 -1.996471 4.769337 -1.221343 3.637087 -6.063267 0.000000 0.000000 0.000000 2.009201 -1.844601 1.856547 -0.561825 -1.869845 -3.033314 1.371197 5.256470 4.551425 0.000000 0.000000 0.000000 3.191849 -0.002718 -1.748402 3.097433 2.158031 0.400804 2.999343 -0.274514 1.174170 0.000000 0.000000 0.000000 1.516127 -0.306890 2.762953 1.597135 -0.819004 0.327529 1.516721 2.022231 0.746322 0.000000 0.000000 0.000000 
-2523.142822 1044.945557 1182.496948 0.938895 -0.769587 0.539814 0.493147 0.889723 -1.969253 0.625790 -0.185891 0.458389 0.575045 0.205639 -0.320460 -0.090778 0.898199 0.362593 0.000000 0.000000 0.000000 -1.279417 -1.698856 1.804686 -0.051107 -1.996945 4.779163 -1.220858 3.632629 -6.063923 0.000000 0.000000 0.000000 2.007229 -1.842643 1.848887 -0.563144 -1.867431 -3.044254 1.370041 5.252992 4.547198 0.000000 0.000000 0.000000 3.190339 -0.002429 -1.749493 3.095761 2.158318 0.403131 2.997955 -0.273641 1.173758 0.000000 0.000000 0.000000 1.513662 -0.307480 2.761696 1.594570 -0.819835 0.330230 1.514418 2.025413 0.745529 0.000000 0.000000 0.000000 
-2523.163818 1044.944702 1182.496948 0.942755 -0.771831 0.539702 0.492478 0.893316 -1.967889 0.624984 -0.186219 0.457592 0.574359 0.206083 -0.319693 -0.090141 0.899227 0.360749 0.000000 0.000000 0.000000 -1.279985 -1.699157 1.807713 -0.050484 -1.997642 4.787542 -1.220435 3.629110 -6.064039 0.000000 0.000000 0.000000 2.004948 -1.840622 1.841404 -0.564345 -1.865011 -3.053612 1.368626 5.249304 4.541934 0.000000 0.000000 0.000000 3.189150 -0.001264 -1.749662 3.094528 2.159141 0.403939 2.996841 -0.273129 1.173394 0.000000 0.000000 0.000000 1.511933 -0.306708 2.760802 1.592777 -0.820147 0.332412 1.512832 2.027917 0.745000 0.000000 0.000000 0.000000 
-2523.182617 1044.939941 1182.495972 0.944057 -0.776333 0.539446 0.493501 0.898387 -1.967786 0.625984 -0.186069 0.457506 0.575370 0.206923 -0.319707 -0.090090 0.900115 0.360682 0.000000 0.000000 0.000000 -1.280976 -1.699557 1.812042 -0.049915 -1.998381 4.794869 -1.219987 3.626746 -6.062363 0.000000 0.000000 0.000000 2.000372 -1.839056 1.836246 -0.565486 -1.862526 -3.061557 1.366867 5.245518 4.535249 0.000000 0.000000 0.000000 3.188412 0.001965 -1.747959 3.093959 2.161098 0.402160 2.996117 -0.274781 1.172805 0.000000 0.000000 0.000000 1.511335 -0.303532 2.760995 1.592206 -0.819159 0.333192 1.512350 2.028709 0.744840 0.000000 0.000000 0.000000 
-2523.201416 1044.935181 1182.495972 0.943024 -0.782034 0.539113 0.495338 0.905429 -1.968102 0.627811 -0.187094 0.457523 0.577229 0.208341 -0.319646 -0.089932 0.900895 0.360280 0.000000 0.000000 0.000000 -1.281407 -1.700280 1.817023 -0.049465 -1.999288 4.801304 -1.219743 3.625859 -6.060640 0.000000 0.000000 0.000000 1.996012 -1.837277 1.831356 -0.566465 -1.859942 -3.068122 1.364940 5.241364 4.527920 0.000000 0.000000 0.000000 3.187951 0.006034 -1.745537 3.093754 2.163628 0.399293 2.995637 -0.277095 1.172198 0.000000 0.000000 0.000000 1.511532 -0.299161 2.761612 1.592462 -0.817332 0.333322 1.512635 2.028666 0.744956 0.000000 0.000000 0.000000 
-2523.221436 1044.930298 1182.495972 0.942369 -0.785494 0.539208 0.497178 0.910515 -1.970540 0.629847 -0.187986 0.458844 0.579164 0.209110 -0.320016 -0.089938 0.903596 0.360554 0.000000 0.000000 0.000000 -1.284296 -1.700149 1.821387 -0.048873 -1.999707 4.807570 -1.219129 3.623836 -6.057344 0.000000 0.000000 0.000000 1.990536 -1.835137 1.826598 -0.567090 -1.856869 -3.072999 1.363421 5.238313 4.522122 0.000000 0.000000 0.000000 3.187630 0.007758 -1.744020 3.093625 2.165668 0.396936 2.995280 -0.278335 1.171832 0.000000 0.000000 0.000000 1.511794 -0.296836 2.761870 1.592763 -0.816438 0.333094 1.512912 2.028864 0.745083 0.000000 0.000000 0.000000 
-2523.243164 1044.924438 1182.496948 0.944003 -0.784821 0.539903 0.498555 0.911905 -1.974805 0.631546 -0.188566 0.460234 0.580699 0.209729 -0.321133 -0.090277 0.907297 0.361932 0.000000 0.000000 0.000000 -1.290399 -1.698981 1.825829 -0.048094 -1.999557 4.814166 -1.218085 3.620177 -6.052557 0.000000 0.000000 0.000000 1.984214 -1.832865 1.822769 -0.567237 -1.853449 -3.076632 1.362596 5.235713 4.519154 0.000000 0.000000 0.000000 3.186901 0.005285 -1.744213 3.092941 2.166763 0.396081 2.994531 -0.276826 1.171795 0.000000 0.000000 0.000000 1.511510 -0.298587 2.761699 1.592482 -0.817344 0.332237 1.512518 2.030542 0.745009 0.000000 0.000000 0.000000 
-2523.266846 1044.919434 1182.499023 0.945974 -0.782173 0.541043 0.500067 0.912251 -1.980191 0.633452 -0.190168 0.461813 0.582406 0.210778 -0.322820 -0.090894 0.912372 0.364282 0.000000 0.000000 0.000000 -1.298728 -1.697282 1.830604 -0.047249 -1.999139 4.820089 -1.216793 3.615675 -6.046837 0.000000 0.000000 0.000000 1.976417 -1.830496 1.818998 -0.567002 -1.849761 -3.078346 1.362260 5.234320 4.518022 0.000000 0.000000 0.000000 3.186233 0.000740 -1.745576 3.092221 2.167199 0.396177 2.993838 -0.273899 1.172033 0.000000 0.000000 0.000000 1.510993 -0.302190 2.760907 1.591927 -0.819228 0.331540 1.511842 2.033107 0.744865 0.000000 0.000000 0.000000 
-2523.289062 1044.921509 1182.500977 0.946598 -0.781030 0.541553 0.500347 0.913803 -1.984101 0.634062 -0.191315 0.463839 0.582784 0.211348 -0.324364 -0.091183 0.916401 0.365541 0.000000 0.000000 0.000000 -1.303085 -1.696102 1.833869 -0.046488 -1.998694 4.824527 -1.215580 3.611958 -6.041090 0.000000 0.000000 0.000000 1.972534 -1.827377 1.814426 -0.566624 -1.846100 -3.079958 1.362537 5.234341 4.519161 0.000000 0.000000 0.000000 3.186126 -0.001526 -1.746298 3.092109 2.166601 0.395701 2.993683 -0.271070 1.172473 0.000000 0.000000 0.000000 1.511072 -0.304032 2.760736 1.592028 -0.820678 0.330125 1.511757 2.034836 0.744924 0.000000 0.000000 0.000000 
-2523.307617 1044.933716 1182.501953 0.944147 -0.782501 0.540569 0.499098 0.916244 -1.983100 0.632685 -0.191287 0.462780 0.581528 0.211627 -0.323740 -0.091068 0.917189 0.365276 0.000000 0.000000 0.000000 -1.300625 -1.695930 1.834233 -0.045786 -1.998412 4.827911 -1.214492 3.609227 -6.035525 0.000000 0.000000 0.000000 1.974452 -1.823026 1.807966 -0.566090 -1.842374 -3.082117 1.363905 5.236896 4.524378 0.000000 0.000000 0.000000 3.186775 0.000210 -1.745148 3.092875 2.163869 0.394030 2.994271 -0.268771 1.173124 0.000000 0.000000 0.000000 1.512148 -0.303035 2.762326 1.593238 -0.820744 0.327620 1.512693 2.034825 0.745318 0.000000 0.000000 0.000000 
-2523.324219 1044.952026 1182.503052 0.939807 -0.785223 0.538921 0.497322 0.919615 -1.980590 0.630709 -0.191335 0.462128 0.579634 0.212042 -0.323297 -0.090901 0.917355 0.364796 0.000000 0.000000 0.000000 -1.296008 -1.696048 1.833734 -0.045146 -1.998097 4.829882 -1.213408 3.606453 -6.030274 0.000000 0.000000 0.000000 1.978749 -1.818294 1.800798 -0.565499 -1.838806 -3.083803 1.365863 5.241845 4.531623 0.000000 0.000000 0.000000 3.188147 0.003979 -1.743340 3.094410 2.159855 0.391867 2.995559 -0.266562 1.174045 0.000000 0.000000 0.000000 1.513864 -0.300238 2.764445 1.595138 -0.820752 0.324822 1.514279 2.034322 0.745957 0.000000 0.000000 0.000000 
-2523.343262 1044.975342 1182.503052 0.936747 -0.787604 0.537910 0.494685 0.924001 -1.977709 0.627829 -0.190563 0.461092 0.576878 0.211650 -0.322386 -0.090252 0.916272 0.362731 0.000000 0.000000 0.000000 -1.291203 -1.696462 1.833289 -0.044652 -1.997950 4.830008 -1.212478 3.603696 -6.026475 0.000000 0.000000 0.000000 1.984022 -1.813988 1.794049 -0.564998 -1.835941 -3.084209 1.367478 5.247050 4.537356 0.000000 0.000000 0.000000 3.189266 0.006113 -1.742883 3.095604 2.158371 0.390524 2.996586 -0.265305 1.174689 0.000000 0.000000 0.000000 1.515034 -0.298072 2.764720 1.596385 -0.820907 0.323648 1.515382 2.033745 0.746390 0.000000 0.000000 0.000000 
-2523.365479 1045.006348 1182.503052 0.937372 -0.788928 0.538907 0.490036 0.929554 -1.975845 0.622988 -0.191533 0.460326 0.572196 0.213643 -0.321351 -0.089391 0.911999 0.359716 0.000000 0.000000 0.000000 -1.285195 -1.697517 1.833524 -0.044264 -1.998117 4.827387 -1.211397 3.598051 -6.024796 0.000000 0.000000 0.000000 1.990909 -1.810847 1.787737 -0.564838 -1.834764 -3.082464 1.368510 5.253789 4.540355 0.000000 0.000000 0.000000 3.189336 0.005049 -1.745976 3.095516 2.161186 0.391184 2.996551 -0.265700 1.174606 0.000000 0.000000 0.000000 1.515148 -0.297542 2.760371 1.596323 -0.821519 0.325789 1.515487 2.034722 0.746490 0.000000 0.000000 0.000000 
-2523.391113 1045.042358 1182.501953 0.938625 -0.789968 0.540704 0.485185 0.937258 -1.973423 0.617846 -0.193281 0.458688 0.567307 0.215175 -0.319949 -0.088416 0.907482 0.356330 0.000000 0.000000 0.000000 -1.280601 -1.698597 1.834115 -0.044010 -1.998403 4.823248 -1.210468 3.592050 -6.025002 0.000000 0.000000 0.000000 1.997383 -1.808303 1.781692 -0.564774 -1.834272 -3.078899 1.369147 5.261286 4.541545 0.000000 0.000000 0.000000 3.189383 0.002409 -1.750512 3.095324 2.166265 0.392433 2.996463 -0.266951 1.174348 0.000000 0.000000 0.000000 1.514948 -0.297502 2.753717 1.595813 -0.822413 0.330099 1.515342 2.036240 0.746514 0.000000 0.000000 0.000000 
-2523.418457 1045.073242 1182.500977 0.938521 -0.790299 0.541522 0.482650 0.945644 -1.971890 0.615141 -0.194398 0.458103 0.564714 0.216992 -0.319403 -0.088147 0.901038 0.354913 0.000000 0.000000 0.000000 -1.281204 -1.699789 1.836523 -0.043927 -1.999377 4.818615 -1.210104 3.589676 -6.025794 0.000000 0.000000 0.000000 1.998029 -1.807409 1.778204 -0.564544 -1.833990 -3.076368 1.369934 5.266490 4.543682 0.000000 0.000000 0.000000 3.189691 -0.000722 -1.753376 3.095498 2.170058 0.393010 2.996666 -0.267305 1.174370 0.000000 0.000000 0.000000 1.515134 -0.298421 2.749054 1.595756 -0.822940 0.333248 1.515536 2.037695 0.746676 0.000000 0.000000 0.000000 
